<svg width="101" height="75" viewBox="0 0 101 75" fill="none" xmlns="http://www.w3.org/2000/svg">
<path d="M22.7961 29.85C21.6811 29.85 20.6111 30.02 19.5461 30.175C19.8911 29.015 20.2461 27.835 20.8161 26.775C21.3861 25.235 22.2761 23.9 23.1611 22.555C23.9011 21.1 25.2061 20.115 26.1661 18.87C27.1711 17.66 28.5411 16.855 29.6261 15.85C30.6911 14.8 32.0861 14.275 33.1961 13.535C34.3561 12.87 35.3661 12.135 36.4461 11.785L39.1411 10.675L41.5111 9.69L39.0861 0L36.1011 0.719998C35.1461 0.959998 33.9811 1.24 32.6561 1.575C31.3011 1.825 29.8561 2.51 28.2461 3.135C26.6561 3.845 24.8161 4.325 23.1061 5.465C21.3861 6.555 19.4011 7.465 17.6511 8.925C15.9561 10.43 13.9111 11.735 12.4011 13.65C10.7511 15.44 9.12114 17.32 7.85614 19.46C6.39114 21.5 5.39614 23.74 4.34614 25.955C3.39614 28.17 2.63114 30.435 2.00614 32.635C0.821137 37.045 0.291136 41.235 0.0861363 44.82C-0.0838637 48.41 0.0161363 51.395 0.226136 53.555C0.301136 54.575 0.441137 55.565 0.541137 56.25L0.666136 57.09L0.796136 57.06C1.68544 61.2142 3.73265 65.0316 6.70095 68.0709C9.66925 71.1101 13.4373 73.247 17.5693 74.2341C21.7013 75.2213 26.0284 75.0185 30.0499 73.6492C34.0715 72.2799 37.6232 69.8 40.2942 66.4964C42.9652 63.1928 44.6464 59.2006 45.1432 54.9815C45.6401 50.7624 44.9323 46.4888 43.1018 42.6551C41.2713 38.8214 38.3928 35.5843 34.7994 33.3182C31.206 31.0522 27.0444 29.8497 22.7961 29.85ZM77.7961 29.85C76.6811 29.85 75.6111 30.02 74.5461 30.175C74.8911 29.015 75.2461 27.835 75.8161 26.775C76.3861 25.235 77.2761 23.9 78.1611 22.555C78.9011 21.1 80.2061 20.115 81.1661 18.87C82.1711 17.66 83.5411 16.855 84.6261 15.85C85.6911 14.8 87.0861 14.275 88.1961 13.535C89.3561 12.87 90.3661 12.135 91.4461 11.785L94.1411 10.675L96.5111 9.69L94.0861 0L91.1011 0.719998C90.1461 0.959998 88.9811 1.24 87.6561 1.575C86.3011 1.825 84.8561 2.51 83.2461 3.135C81.6611 3.85 79.8161 4.325 78.1061 5.47C76.3861 6.56 74.4011 7.47 72.6511 8.93C70.9561 10.435 68.9111 11.74 67.4011 13.65C65.7511 15.44 64.1211 17.32 62.8561 19.46C61.3911 21.5 60.3961 23.74 59.3461 25.955C58.3961 28.17 57.6311 30.435 57.0061 32.635C55.8211 37.045 55.2911 41.235 55.0861 44.82C54.9161 48.41 55.0161 51.395 55.2261 53.555C55.3011 54.575 55.4411 55.565 55.5411 56.25L55.6661 57.09L55.7961 57.06C56.6854 61.2142 58.7327 65.0316 61.701 68.0709C64.6693 71.1101 68.4373 73.247 72.5693 74.2341C76.7013 75.2213 81.0284 75.0185 85.0499 73.6492C89.0714 72.2799 92.6232 69.8 95.2942 66.4964C97.9652 63.1928 99.6464 59.2006 100.143 54.9815C100.64 50.7624 99.9323 46.4888 98.1018 42.6551C96.2713 38.8214 93.3928 35.5843 89.7994 33.3182C86.206 31.0522 82.0444 29.8497 77.7961 29.85Z" fill="white" fill-opacity="0.04"/>
</svg>
